{"title":"Re-Animator 1985 BRRip x264 AAC-UNiQUE","uid":7568321,"size":1517919384,"categoryP":"video","categoryS":"movies","magnet":"?xt=urn:btih:7eb9d93d0ed985d761d7dcf1f8795dbad5094885&amp;dn=Re-Animator+1985+BRRip+x264+AAC-UNiQUE&amp;tr=udp%3A%2F%2Ftracker.openbittorrent.com%3A80&amp;tr=udp%3A%2F%2Fopen.demonii.com%3A1337&amp;tr=udp%3A%2F%2Ftracker.coppersurfer.tk%3A6969&amp;tr=udp%3A%2F%2Fexodus.desync.com%3A6969","seeders":0,"leechers":0,"uploader":"neon","files":-1,"time":1345923707,"description":"A dedicated student at a medical college and his girlfriend become involved in bizarre experiments centering around the re-animation of dead tissue when an odd new student arrives on campus.\n \niMDB: &lt;a href=&quot; http://www.imdb.com/title/tt89885&quot; rel=&quot;nofollow&quot; target=&quot;_NEW&quot;&gt; http://www.imdb.com/title/tt89885&lt;/a&gt;\n\nGeneral\n Complete name :Re-Animator 1985 BRRip x264 AAC-UNiQUE.mp4\n Format : MPEG-4\n Format profile : Base Media\n Codec ID : isom\n File size : 1.39 GiB\n Duration : 1h 25mn\n Overall bit rate mode : Variable\n Overall bit rate : 2 318 Kbps\n Encoded date : UTC 2012-08-25 09:27:57\n \nVideo\n ID : 1\n Format : AVC\n Format/Info : Advanced Video Codec\n Format profile : &lt;a class=&quot;__cf_email__&quot; href=&quot;/cdn-cgi/l/email-protection&quot; data-cfemail=&quot;d59dbcb2bd9599e1fbe4&quot;&gt;[email&amp;#160;protected]&lt;/a&gt;&lt;script data-cfhash='f9e31' type=&quot;text/javascript&quot;&gt;\n/* &lt;![CDATA[ */!function(){try{var t=&quot;currentScript&quot;in document?document.currentScript:function(){for(var t=document.getElementsByTagName(&quot;script&quot;),e=t.length;e--;)if(t[e].getAttribute(&quot;data-cfhash&quot;))return t[e]}();if(t&amp;&amp;t.previousSibling){var e,r,n,i,c=t.previousSibling,a=c.getAttribute(&quot;data-cfemail&quot;);if(a){for(e=&quot;&quot;,r=parseInt(a.substr(0,2),16),n=2;a.length-n;n+=2)i=parseInt(a.substr(n,2),16)^r,e+=String.fromCharCode(i);e=document.createTextNode(e),c.parentNode.replaceChild(e,c)}t.parentNode.removeChild(t);}}catch(u){}}()/* ]]&gt; */&lt;/script&gt;\n Format settings, CABAC : Yes\n Format settings, ReFrames : 3 frames\n Codec ID : avc1\n Codec ID/Info : Advanced Video Coding\n Duration : 1h 25mn\n Bit rate mode : Variable\n Bit rate : 1 986 Kbps\n Maximum bit rate : 40.0 Mbps\n Width : 720 pixels\n Height : 384 pixels\n Display aspect ratio : 1.85:1\n Frame rate mode : Constant\n Frame rate : 23.976 fps\n Color space : YUV\n Chroma subsampling : 4:2:0\n Bit depth : 8 bits\n Scan type : Progressive\n Bits/(Pixel*Frame) : 0.300\n Stream size : 1.19 GiB (86%)\n Writing library : x264 core 125 r2208 d9d2288\n \nAudio\n ID : 2\n Format : AAC\n Format/Info : Advanced Audio Codec\n Format profile : LC\n Codec ID : 40\n Duration : 1h 25mn\n Bit rate mode : Variable\n Bit rate : 328 Kbps\n Maximum bit rate : 376 Kbps\n Channel(s) : 6 channels\n Channel positions : Front: L C R, Side: L R, LFE\n Sampling rate : 48.0 KHz\n Compression mode : Lossy\n Stream size : 201 MiB (14%)\n Language : English\n Encoded date : UTC 2012-08-25 09:28:17\n \nSubtitles : English.srt included\n \nSource : 720p.BluRay.x264-HD4U - Thanks!\n &lt;a href=&quot;\nhttp://i.imgrz.com/2fyue.png&quot; rel=&quot;nofollow&quot; target=&quot;_NEW&quot;&gt;\nhttp://i.imgrz.com/2fyue.png&lt;/a&gt; &lt;a href=&quot;\nhttp://i.imgrz.com/3MZKo.png&quot; rel=&quot;nofollow&quot; target=&quot;_NEW&quot;&gt;\nhttp://i.imgrz.com/3MZKo.png&lt;/a&gt; &lt;a href=&quot;\nhttp://i.imgrz.com/3cGBM.png&quot; rel=&quot;nofollow&quot; target=&quot;_NEW&quot;&gt;\nhttp://i.imgrz.com/3cGBM.png&lt;/a&gt; &lt;a href=&quot;\nhttp://i.imgrz.com/GStKc.png&quot; rel=&quot;nofollow&quot; target=&quot;_NEW&quot;&gt;\nhttp://i.imgrz.com/GStKc.png&lt;/a&gt;\n","torrent":{"xt":"urn:btih:7eb9d93d0ed985d761d7dcf1f8795dbad5094885","amp;dn":"Re-Animator+1985+BRRip+x264+AAC-UNiQUE","amp;tr":["udp%3A%2F%2Ftracker.openbittorrent.com%3A80","udp%3A%2F%2Fopen.demonii.com%3A1337","udp%3A%2F%2Ftracker.coppersurfer.tk%3A6969","udp%3A%2F%2Fexodus.desync.com%3A6969"],"infoHash":"7eb9d93d0ed985d761d7dcf1f8795dbad5094885","infoHashBuffer":{"type":"Buffer","data":[126,185,217,61,14,217,133,215,97,215,220,241,248,121,93,186,213,9,72,133]},"announce":[],"urlList":[]}}